<?xml version="1.0" encoding="UTF-8" standalone="no"?>
<svg
   version="1.0"
   width="1024.000000pt"
   height="1024.000000pt"
   viewBox="0 0 1024.000000 1024.000000"
   preserveAspectRatio="xMidYMid meet"
   id="svg19"
   sodipodi:docname="favicon.svg"
   inkscape:version="1.3.2 (091e20e, 2023-11-25, custom)"
   inkscape:export-filename="favicon.png"
   inkscape:export-xdpi="96"
   inkscape:export-ydpi="96"
   xmlns:inkscape="http://www.inkscape.org/namespaces/inkscape"
   xmlns:sodipodi="http://sodipodi.sourceforge.net/DTD/sodipodi-0.dtd"
   xmlns="http://www.w3.org/2000/svg"
   xmlns:svg="http://www.w3.org/2000/svg">
  <defs
     id="defs19">
    <inkscape:perspective
       sodipodi:type="inkscape:persp3d"
       inkscape:vp_x="189.4104 : 489.02655 : 1"
       inkscape:vp_y="0 : 1000 : 0"
       inkscape:vp_z="1213.4104 : 489.02655 : 1"
       inkscape:persp3d-origin="701.4104 : 318.35988 : 1"
       id="perspective26" />
  </defs>
  <sodipodi:namedview
     id="namedview19"
     pagecolor="#505050"
     bordercolor="#eeeeee"
     borderopacity="1"
     inkscape:showpageshadow="0"
     inkscape:pageopacity="0"
     inkscape:pagecheckerboard="0"
     inkscape:deskcolor="#505050"
     inkscape:document-units="pt"
     inkscape:zoom="0.63354492"
     inkscape:cx="711.07823"
     inkscape:cy="658.99037"
     inkscape:window-width="1920"
     inkscape:window-height="1057"
     inkscape:window-x="-8"
     inkscape:window-y="-8"
     inkscape:window-maximized="1"
     inkscape:current-layer="layer3" />
  <g
     inkscape:groupmode="layer"
     id="layer3"
     inkscape:label="Layer 3"
     sodipodi:insensitive="true">
    <rect
       style="fill:#e6e6e6;fill-opacity:1;stroke-width:0.75"
       id="rect33"
       width="759.05664"
       height="759.05664"
       x="135.34332"
       y="125.47168"
       ry="31.511051" />
  </g>
  <g
     inkscape:groupmode="layer"
     id="layer1"
     inkscape:label="Layer 1"
     style="display:inline"
     sodipodi:insensitive="true">
    <g
       id="g20">
      <path
         d="m 766.5,154.4 c -11.1,4.2 -16.3,10.8 -17.2,21.7 -1.3,15.3 10.5,28.1 25.6,27.8 9.1,-0.1 18.1,-5.6 22.1,-13.5 3.2,-6.2 3.5,-17 0.6,-22.4 -2.6,-4.9 -7.4,-9.8 -12.1,-12.3 -4.6,-2.4 -14.4,-3.1 -19,-1.3 z"
         id="path1"
         style="fill:#163d5e;fill-opacity:1;stroke:none;stroke-width:0.1" />
      <path
         d="m 838.5,153.9 c -7.2,1.8 -13.9,7.3 -17.2,14 -2.5,5 -2.4,16.3 0.2,21.5 7.7,15.8 28.7,19.5 41,7.1 12.1,-12 8.6,-33.6 -6.6,-40.7 -4.1,-2 -13.3,-3 -17.4,-1.9 z"
         id="path2"
         style="fill:#163d5e;fill-opacity:1;stroke:none;stroke-width:0.1" />
      <path
         d="m 158.4,156 c -5.2,2.1 -5.4,3.1 -5.4,35.6 v 30.2 l 2.9,3.1 2.9,3.1 h 29.7 c 18.4,0 30.4,-0.4 31.6,-1 4.6,-2.5 4.9,-5.1 4.9,-36.5 v -29.7 l -2.9,-2.9 -2.9,-2.9 -29.4,0.1 c -16.1,0 -30.3,0.4 -31.4,0.9 z M 211,191.5 V 213 H 189.5 168 V 191.5 170 h 21.5 21.5 z"
         id="path3"
         style="fill:#163d5e;fill-opacity:1;stroke:none;stroke-width:0.1" />
      <path
         d="m 771.4,222.7 c -0.5,0.1 -2.7,0.7 -5,1.2 -9.4,2.4 -17.4,13.5 -17.4,24.1 0.1,13.6 9.7,23.6 23.7,24.8 14.1,1.1 25.3,-8 26.9,-22 1.2,-10.1 -4.6,-21.2 -13.3,-25.4 -3.4,-1.6 -12.7,-3.3 -14.9,-2.7 z"
         id="path4"
         style="fill:#163d5e;fill-opacity:1;stroke:none;stroke-width:0.1" />
      <path
         d="m 835.8,224.1 c -20.7,7 -22.3,37.3 -2.4,46.5 16.1,7.5 34.5,-2.7 36.3,-20.1 1.9,-18.1 -16.4,-32.4 -33.9,-26.4 z"
         id="path5"
         style="fill:#163d5e;fill-opacity:1;stroke:none;stroke-width:0.1" />
      <path
         d="m 582.2,244.3 c -3,3.2 -2.8,7.1 0.4,9.6 2.5,2 3.9,2.1 27.3,2.1 23.5,0 24.8,-0.1 26.9,-2 3.1,-2.9 3,-8.3 -0.3,-10.4 -2.1,-1.4 -6.1,-1.6 -27.3,-1.6 -24.7,0 -24.9,0 -27,2.3 z"
         id="path6"
         style="fill:#163d5e;fill-opacity:1;stroke:none;stroke-width:0.1" />
      <path
         d="m 270.9,431.3 c -4.1,2.8 -5.9,6 -5.9,10.9 0,8.3 4.4,12.3 13.8,12.3 6.1,0 6.5,-0.2 9.8,-3.7 2.8,-3.1 3.4,-4.6 3.4,-8 0,-11.1 -12,-17.7 -21.1,-11.5 z"
         id="path7"
         style="fill:#163d5e;fill-opacity:1;stroke:none;stroke-width:0.1" />
      <path
         d="M 775.8,431.1 C 761.5,435.3 755,446 755,465.3 v 5.8 l -7.2,-0.2 -7.3,-0.2 -0.3,10.1 -0.3,10.2 h 7.6 7.5 v 40 40 h 11.9 11.8 l 0.7,-3.8 c 0.3,-2 0.6,-20 0.6,-39.9 v -36.2 l 10.3,-0.3 10.2,-0.3 0.3,-10 0.3,-10 -10.6,0.3 -10.5,0.3 V 465 c 0,-6.8 1.9,-12.3 4.7,-13.8 1,-0.5 5.1,-1.5 9.1,-2.2 l 7.2,-1.3 v -8.8 c 0,-7.9 -0.2,-8.8 -2,-9.4 -3.5,-1.1 -17.3,-0.2 -23.2,1.6 z"
         id="path8"
         style="fill:#163d5e;fill-opacity:1;stroke:none;stroke-width:0.1" />
      <path
         d="m 408.1,486.7 c 0.1,64.8 0.4,71.5 4.2,77.2 4,6.1 8.4,7.8 19.8,8 5.3,0.1 10.8,-0.1 12.2,-0.4 3.3,-0.9 4.1,-4.2 3.2,-13.9 l -0.7,-7.3 -5.1,-0.2 c -3.1,-0.1 -5.8,-0.8 -6.7,-1.7 -1.3,-1.3 -1.5,-9.4 -1.8,-59.4 l -0.3,-58 H 420.5 408 Z"
         id="path9"
         style="fill:#163d5e;fill-opacity:1;stroke:none;stroke-width:0.1" />
      <path
         d="m 701.4,432.4 c -0.3,0.7 -0.4,12 -0.2,25 0.2,13 0.2,23.6 0,23.6 -0.1,0 -1.6,-1.5 -3.2,-3.3 -7.3,-8.3 -22.2,-11.6 -37.3,-8.3 -22.3,5 -34.1,25.1 -32.3,55.1 1.3,22.7 8.6,36.4 23.7,44.5 6.2,3.4 6.7,3.5 17.9,3.5 10.6,0 12,-0.2 17.1,-2.8 3.1,-1.5 7.5,-4.8 9.8,-7.2 2.3,-2.5 4.3,-4.5 4.4,-4.5 0.2,0 0.2,1.3 -0.1,3 -0.2,1.6 -0.1,4.6 0.2,6.5 l 0.7,3.5 h 11.9 12 v -51.3 c 0,-28.1 -0.3,-59.6 -0.7,-70 L 724.7,431 h -11.4 c -8.6,0 -11.5,0.3 -11.9,1.4 z m -11.9,59 c 9,5.3 12.1,12.8 11.9,28.7 -0.2,12.8 -1.9,18.9 -7,24.2 -6.4,6.8 -13.5,8.7 -23.7,6.5 -11.9,-2.5 -17.5,-14.5 -16.5,-35 0.8,-15.5 6.3,-24.1 17,-26.9 5.5,-1.4 13.5,-0.3 18.3,2.5 z"
         id="path10"
         style="fill:#163d5e;fill-opacity:1;stroke:none;stroke-width:0.1" />
      <path
         d="m 147.1,434.4 c -0.8,0.9 -1,19.8 -0.9,68.7 l 0.3,67.4 h 13 13 l 0.3,-24.8 0.2,-24.8 11.2,0.3 11.1,0.3 13,24.7 13.1,24.8 h 14.9 c 13.8,0 14.9,-0.1 14.2,-1.8 -0.3,-0.9 -4.8,-9.1 -9.9,-18.2 -15.2,-27 -19,-34.4 -17.9,-34.7 0.6,-0.2 3,-1.6 5.5,-3.2 5.6,-3.6 11,-10.1 14.5,-17.7 2.6,-5.5 2.8,-6.8 2.8,-18.9 0,-12.6 -0.1,-13.2 -3.2,-19.8 -5.8,-12.2 -15.7,-19.3 -31,-22.2 -10.8,-2.1 -62.5,-2.2 -64.2,-0.1 z m 59.7,22.5 c 9.8,2.7 15.5,12.6 13.3,23.4 C 217.2,494 209.7,498 186.8,498 H 173 V 476.5 455 l 14.8,0.4 c 8.1,0.2 16.6,0.9 19,1.5 z"
         id="path11"
         style="fill:#163d5e;fill-opacity:1;stroke:none;stroke-width:0.1" />
      <path
         d="m 505.6,470.1 c -9.5,3.2 -14.6,7.1 -17.4,12.9 l -1.7,3.5 -0.3,-8 -0.3,-8 -11.9,0.3 -12,0.3 -0.2,49.1 c -0.2,26.9 0,49.4 0.3,49.9 0.3,0.6 5.6,0.8 12,0.7 l 11.4,-0.3 0.5,-30.5 c 0.5,-33.1 0.6,-33.3 6.5,-39.3 3.4,-3.3 11.4,-7.2 18,-8.8 2.8,-0.6 5.5,-1.3 6,-1.4 0.6,-0.2 0.9,-4.5 0.7,-11.4 L 516.9,468 h -2.7 c -1.5,0.1 -5.3,1 -8.6,2.1 z"
         id="path12"
         style="fill:#163d5e;fill-opacity:1;stroke:none;stroke-width:0.1" />
      <path
         d="m 556.5,469.5 c -11.6,2.7 -19.2,7.3 -24.4,14.8 -3,4.4 -6,13.1 -4.9,14.2 0.4,0.5 21.9,4.5 24.1,4.5 0.4,0 0.7,-1.1 0.7,-2.5 0,-3.5 2.4,-7.9 5.6,-10.4 2.3,-1.8 4,-2.1 12.4,-2.1 11.3,0 13.8,1.2 16,8 1.2,3.6 1.2,4.6 -0.1,6.8 -0.8,1.5 -2.3,2.9 -3.4,3.1 -1,0.2 -2.4,0.9 -3.1,1.6 -0.7,0.6 -5.4,1.7 -10.6,2.4 -22.4,3 -30.8,5.9 -36.8,12.7 -11.8,13.5 -9.9,35.6 3.8,44.7 7,4.6 13.5,6 24.5,5.4 8.4,-0.4 10.8,-1 16.2,-3.6 3.5,-1.8 7.5,-4.5 8.9,-6.1 1.3,-1.7 2.7,-3 2.9,-3 0.3,0 0.8,1.2 1.1,2.7 0.4,1.6 1.2,4 1.8,5.5 l 1,2.8 h 10.3 c 10.9,0 12.2,-0.6 10.2,-4.5 -1.1,-2 -1.5,-13.1 -2,-54 l -0.2,-21 -3.2,-6.6 c -3.6,-7.3 -7.5,-10.6 -16.4,-14 -7,-2.7 -25.7,-3.5 -34.4,-1.4 z m 30.5,61.2 c -0.1,12.6 -8.2,21.5 -21,22.9 -12.7,1.4 -20.8,-7.9 -15,-17.3 2.8,-4.6 8,-6.8 19.5,-8.3 5.5,-0.7 11.1,-1.7 12.5,-2.1 1.4,-0.4 2.8,-0.8 3.3,-0.8 0.4,-0.1 0.7,2.5 0.7,5.6 z"
         id="path13"
         style="fill:#163d5e;fill-opacity:1;stroke:none;stroke-width:0.1" />
      <path
         d="m 266.4,470.9 c -0.2,0.2 -0.4,22.9 -0.4,50.3 v 49.9 l 12.3,-0.3 12.2,-0.3 v -49.8 -49.8 l -11.8,-0.2 c -6.5,-0.1 -12.1,0 -12.3,0.2 z"
         id="path14"
         style="fill:#163d5e;fill-opacity:1;stroke:none;stroke-width:0.1" />
      <path
         d="m 349.5,471 -37,0.5 v 9.5 9.5 l 23.3,0.3 23.3,0.2 -4,4.8 c -4.2,4.9 -30.7,37.3 -39.8,48.6 l -5.3,6.5 v 10 10.1 h 41 41 v -10 -10 l -26,-0.2 -26,-0.3 5.7,-7.1 C 363,522.1 372.4,510.5 380,501.3 l 8.4,-10.2 -0.3,-9.8 c -0.1,-5.4 -0.6,-10 -0.9,-10.3 -0.4,-0.3 -17.3,-0.3 -37.7,0 z"
         id="path15"
         style="fill:#163d5e;fill-opacity:1;stroke:none;stroke-width:0.1" />
      <path
         d="M 813,480.7 V 491 h 23.1 23 l -8.3,10.1 c -10.4,12.6 -22.5,27.4 -32.9,40.3 l -8,9.8 0.3,9.7 0.3,9.6 39.3,0.3 39.2,0.2 v -10 -10 h -24 c -14,0 -24,-0.4 -24,-0.9 0,-0.9 6.6,-9.5 32.4,-42.1 L 886.5,491.5 886,481 885.5,470.5 H 849.2 813 Z"
         id="path16"
         style="fill:#163d5e;fill-opacity:1;stroke:none;stroke-width:0.1" />
      <path
         d="m 795,752.9 c -8,1.6 -15.3,7.3 -18.6,14.6 -2.4,4.9 -2.4,5.6 -2.3,33.5 0,26.3 0.2,28.9 2,33 2.6,5.8 5.3,8.6 11.1,11.6 4.6,2.3 5.1,2.4 35.4,2.4 l 30.7,0.1 5.4,-2.8 c 6.2,-3.1 10.8,-8.1 12.4,-13.3 0.7,-2.2 0.9,-14.7 0.7,-34.2 l -0.3,-30.6 -3,-4.4 c -3.9,-5.4 -8.3,-8.4 -14.6,-9.7 -5.5,-1.2 -53.2,-1.3 -58.9,-0.2 z"
         id="path17"
         style="fill:#163d5e;fill-opacity:1;stroke:none;stroke-width:0.1" />
      <path
         d="m 317.2,772.3 c -2.9,3 -2.8,6.2 0.3,9.2 l 2.4,2.5 h 32.1 32.2 l 2.9,-3 c 3.2,-3.2 3.3,-5.7 0.1,-9.3 -1.4,-1.6 -4.3,-1.7 -34.7,-1.7 h -33.2 z"
         id="path18"
         style="fill:#163d5e;fill-opacity:1;stroke:none;stroke-width:0.1" />
      <path
         d="m 317.5,802.5 c -3,2.9 -3.2,6.8 -0.5,9.5 1.9,1.9 3.3,2 25.4,2 23.1,0 23.5,0 25,-2.2 2.3,-3.3 1.9,-6.6 -1,-9.3 -2.7,-2.5 -2.7,-2.5 -24.6,-2.5 h -21.9 z"
         id="path19"
         style="fill:#163d5e;fill-opacity:1;stroke:none;stroke-width:0.1" />
    </g>
  </g>
  <g
     inkscape:groupmode="layer"
     id="layer2"
     inkscape:label="Layer 2"
     sodipodi:insensitive="true">
    <path
       id="path25"
       style="fill:#3ec2d3;fill-opacity:1;stroke-width:0.690817"
       inkscape:label="path20"
       d="m 169.37456,756.45285 a 65.109825,69.890167 38.834937 0 0 93.32084,-12.28481 48.832367,65.442596 38.834937 0 1 -10.09271,-32.10344 48.832367,65.442596 38.834937 0 1 19.3047,-46.57853 65.109825,69.890167 38.834937 0 0 -14.87896,-17.91662 65.109825,69.890167 38.834937 0 0 -26.2967,-12.2295 48.832367,65.442596 38.834937 0 1 -39.93621,26.96833 48.832367,65.442596 38.834937 0 1 -28.54539,-0.82344 65.109825,69.890167 38.834937 0 0 7.12443,94.96801 z" />
    <path
       sodipodi:type="star"
       style="fill:#3ec2d3;fill-opacity:1;stroke-width:0.75"
       id="path26"
       inkscape:flatsided="false"
       sodipodi:sides="5"
       sodipodi:cx="315.0975"
       sodipodi:cy="222.57664"
       sodipodi:r1="54.878349"
       sodipodi:r2="27.439177"
       sodipodi:arg1="0.44568765"
       sodipodi:arg2="1.0740062"
       inkscape:rounded="0"
       inkscape:randomized="0"
       d="m 364.61503,246.23352 -36.43985,0.46537 -20.27494,30.2821 -11.70313,-34.51255 -35.06529,-9.92494 29.20692,-21.79529 -1.3966,-36.41605 29.754,21.04231 34.20215,-12.58142 -10.81794,34.80017 z"
       inkscape:transform-center-x="2.2240779"
       inkscape:transform-center-y="3.0799289"
       transform="translate(68.661272,53.667841)" />
    <g
       sodipodi:type="inkscape:box3d"
       id="g26"
       style="fill:#3abbcc;fill-opacity:1"
       inkscape:perspectiveID="#perspective26"
       inkscape:corner0="0.070544587 : 0.080056692 : 0 : 1"
       inkscape:corner7="-0.08334556 : 0.0014785348 : 0.25 : 1">
      <path
         sodipodi:type="inkscape:box3dside"
         id="path32"
         style="fill:#3abbcc;fill-opacity:1;fill-rule:evenodd;stroke:none;stroke-linejoin:round"
         inkscape:box3dsidetype="11"
         d="m 770.98867,603.58905 76.71437,9.0509 v 67.35341 l -76.71437,-16.89995 z"
         points="847.70304,612.63995 847.70304,679.99336 770.98867,663.09341 770.98867,603.58905 " />
      <path
         sodipodi:type="inkscape:box3dside"
         id="path27"
         style="fill:#3abbcc;fill-opacity:1;fill-rule:evenodd;stroke:none;stroke-linejoin:round"
         inkscape:box3dsidetype="6"
         d="m 667.67168,619.61258 v 73.40018 l 103.31699,-29.91935 v -59.50436 z"
         points="667.67168,693.01276 770.98867,663.09341 770.98867,603.58905 667.67168,619.61258 " />
      <path
         sodipodi:type="inkscape:box3dside"
         id="path31"
         style="fill:#3abbcc;fill-opacity:1;fill-rule:evenodd;stroke:none;stroke-linejoin:round"
         inkscape:box3dsidetype="13"
         d="m 667.67168,693.01276 80.29165,26.53202 99.73971,-39.55142 -76.71437,-16.89995 z"
         points="747.96333,719.54478 847.70304,679.99336 770.98867,663.09341 667.67168,693.01276 " />
      <path
         sodipodi:type="inkscape:box3dside"
         id="path28"
         style="fill:#3abbcc;fill-opacity:1;fill-rule:evenodd;stroke:none;stroke-linejoin:round"
         inkscape:box3dsidetype="5"
         d="m 667.67168,619.61258 80.29165,14.20943 99.73971,-21.18206 -76.71437,-9.0509 z"
         points="747.96333,633.82201 847.70304,612.63995 770.98867,603.58905 667.67168,619.61258 " />
      <path
         sodipodi:type="inkscape:box3dside"
         id="path30"
         style="fill:#3abbcc;fill-opacity:1;fill-rule:evenodd;stroke:none;stroke-linejoin:round"
         inkscape:box3dsidetype="14"
         d="m 747.96333,633.82201 v 85.72277 l 99.73971,-39.55142 v -67.35341 z"
         points="747.96333,719.54478 847.70304,679.99336 847.70304,612.63995 747.96333,633.82201 " />
      <path
         sodipodi:type="inkscape:box3dside"
         id="path29"
         style="fill:#3abbcc;fill-opacity:1;fill-rule:evenodd;stroke:none;stroke-linejoin:round"
         inkscape:box3dsidetype="3"
         d="m 667.67168,619.61258 80.29165,14.20943 v 85.72277 l -80.29165,-26.53202 z"
         points="747.96333,633.82201 747.96333,719.54478 667.67168,693.01276 667.67168,619.61258 " />
    </g>
  </g>
</svg>
